<?xml version="1.0" ?><svg style="enable-background:new 0 0 256 256;" version="1.1" viewBox="0 0 256 256" xml:space="preserve" xmlns="http://www.w3.org/2000/svg" xmlns:xlink="http://www.w3.org/1999/xlink"><style type="text/css">
	.st0{fill:#00A388;}
	.st1{fill:#EA685E;stroke:#00886F;stroke-width:15;stroke-miterlimit:10;}
	.st2{fill:#E8E8E8;}
	.st3{fill:#FFFFFF;stroke:#00886F;stroke-width:15;stroke-miterlimit:10;}
	.st4{fill:#00886F;}
	.st5{fill:#FFFFFF;}
	.st6{fill:#CCCCCC;}
	.st7{fill:none;stroke:#00A388;stroke-width:4;stroke-miterlimit:10;}
	.st8{fill:#EA685E;}
	.st9{fill:#FFAB80;}
	.st10{fill:#2C3E50;}
	.st11{fill:#4B687F;}
	.st12{fill:none;stroke:#3E5063;stroke-width:4;stroke-miterlimit:10;}
	.st13{fill:#FFD766;}
	.st14{fill:#FFE6D3;}
	.st15{fill:#F09A79;}
	.st16{fill:#C91E01;}
	.st17{fill:#EA3B28;}
	.st18{fill:#0F627F;}
	.st19{fill:#005670;}
	.st20{filter:url(#Adobe_OpacityMaskFilter);}
	.st21{mask:url(#SVGID_2_);}
	.st22{fill:#8C623B;}
	.st23{fill:#E6E6E6;stroke:#005670;stroke-width:16;stroke-miterlimit:10;}
	.st24{opacity:0.6;}
	.st25{fill:#E6E6E6;}
	.st26{fill:#FFEC82;}
	.st27{fill:#FFCF3A;}
	.st28{filter:url(#Adobe_OpacityMaskFilter_1_);}
	.st29{mask:url(#SVGID_1_);}
	.st30{fill:#603813;}
	.st31{fill:#F2F2F2;}
	.st32{fill:#666666;}
</style><g id="Layer_2"><circle class="st2" cx="128" cy="128" r="120"/></g><g id="Layer_1"><g><g><path class="st16" d="M175.928925,70.62709c-18.34816-4.549995-38.163956,4.162292-47.928909,21.488914     c-9.764946-17.326622-29.580734-26.03891-47.928894-21.488914c-24.757511,6.139313-40.720623,37.673607-27.045475,60.333252     c10.944225,18.134338,33.326672,25.180359,49.893726,36.754349c13.048882,9.116257,20.787735,20.387314,25.080643,27.853561     c4.292877-7.466248,12.031769-18.737305,25.080658-27.853561c16.567047-11.57399,38.949493-18.62001,49.893677-36.754349     C216.64949,108.300697,200.686432,76.766403,175.928925,70.62709z"/></g><g><path class="st17" d="M175.928925,61.627094c-18.34816-4.549999-38.163956,4.162289-47.928909,21.488911     c-9.764946-17.326622-29.580734-26.03891-47.928894-21.488911c-24.757511,6.139309-40.720623,37.673603-27.045475,60.333248     c10.944225,18.134338,33.326672,25.180359,49.893726,36.754349c13.048882,9.116257,20.787735,20.387314,25.080643,27.853561     c4.292877-7.466248,12.031769-18.737305,25.080658-27.853561c16.567047-11.57399,38.949493-18.62001,49.893677-36.754349     C216.64949,99.300697,200.686432,67.766403,175.928925,61.627094z"/></g></g></g></svg>